 <svg width="300" height="300" xmlns="http://www.w3.org/2000/svg">
<rect x="200" y="50" width="100" height="100" fill="purple" />
<circle cx="250" cy="50" r="50" fill="black" />
<circle cx="225" cy="25" r="10" fill="white" />
<circle cx="275" cy="25" r="10" fill="white" />
<circle cx="250" cy="55" r="10" fill="white" />
   <circle cx="200" cy="10" r="10" fill="red" />
   <circle cx="200" cy="30" r="10" fill="orange" />
   <circle cx="200" cy="50" r="10" fill="yellow" />
   <circle cx="200" cy="70" r="10" fill="red" />
   <circle cx="200" cy="90" r="10" fill="orange" />
   <circle cx="200" cy="110" r="10" fill="yellow" />
   <circle cx="200" cy="130" r="10" fill="red" />
   <circle cx="200" cy="150" r="10" fill="orange" />
   <circle cx="200" cy="170" r="10" fill="yellow" />
  <path d="M 0 90 L 100 50 L 200 90 Z" fill="beige" stroke="brown" />
    <path d="M 0 20 L 100 50 L 200 20 Z" fill="beige" stroke="brown" />
    <path d="M 300 80 C 40 100 220 300 200 80" fill="none" stroke="black" />
    <text x="50" y="200" font-size="50" fill="pink">Hello World</text>
     <line x1="0" y1="100" x2="200" y2="100" stroke="grey" />
     <line x1="0" y1="125" x2="200" y2="125" stroke="grey" />
     <line x1="0" y1="150" x2="200" y2="150" stroke="grey" />
 </svg>
